<svg width="34" height="14" viewBox="0 0 34 14" fill="none" xmlns="http://www.w3.org/2000/svg">
<path d="M4.47656 2.46875V11H2.87109V2.46875H4.47656ZM7.125 2.46875V3.74023H0.251953V2.46875H7.125ZM8.90039 2.46875H10.2949L12.627 8.89062L14.9531 2.46875H16.3535L13.1836 11H12.0645L8.90039 2.46875ZM8.19727 2.46875H9.5625L9.80859 8.36914V11H8.19727V2.46875ZM15.6855 2.46875H17.0566V11H15.4453V8.36914L15.6855 2.46875ZM21.2461 11H19.4062L19.418 9.73438H21.2461C21.7422 9.73438 22.1582 9.625 22.4941 9.40625C22.8301 9.18359 23.084 8.86523 23.2559 8.45117C23.4277 8.0332 23.5137 7.5332 23.5137 6.95117V6.51172C23.5137 6.0625 23.4648 5.66602 23.3672 5.32227C23.2695 4.97852 23.125 4.68945 22.9336 4.45508C22.7461 4.2207 22.5137 4.04297 22.2363 3.92188C21.959 3.80078 21.6406 3.74023 21.2812 3.74023H19.3711V2.46875H21.2812C21.8516 2.46875 22.3711 2.56445 22.8398 2.75586C23.3125 2.94727 23.7207 3.22266 24.0645 3.58203C24.4121 3.9375 24.6777 4.36328 24.8613 4.85938C25.0488 5.35547 25.1426 5.91016 25.1426 6.52344V6.95117C25.1426 7.56055 25.0488 8.11523 24.8613 8.61523C24.6777 9.11133 24.4121 9.53711 24.0645 9.89258C23.7207 10.248 23.3105 10.5215 22.834 10.7129C22.3574 10.9043 21.8281 11 21.2461 11ZM20.3086 2.46875V11H18.6973V2.46875H20.3086ZM29.7832 7.19727H27.6035L27.5918 6.06055H29.4609C29.7812 6.06055 30.0488 6.01562 30.2637 5.92578C30.4785 5.83594 30.6406 5.70508 30.75 5.5332C30.8633 5.36133 30.9199 5.15234 30.9199 4.90625C30.9199 4.63281 30.8672 4.41016 30.7617 4.23828C30.6602 4.06641 30.5 3.94141 30.2812 3.86328C30.0625 3.78125 29.7852 3.74023 29.4492 3.74023H28.125V11H26.5137V2.46875H29.4492C29.9336 2.46875 30.3652 2.51562 30.7441 2.60938C31.127 2.69922 31.4512 2.83984 31.7168 3.03125C31.9824 3.22266 32.1836 3.46289 32.3203 3.75195C32.4609 4.04102 32.5312 4.38477 32.5312 4.7832C32.5312 5.13477 32.4492 5.45898 32.2852 5.75586C32.125 6.04883 31.877 6.28711 31.541 6.4707C31.209 6.6543 30.7871 6.75977 30.2754 6.78711L29.7832 7.19727ZM29.7129 11H27.1289L27.8027 9.73438H29.7129C30.0332 9.73438 30.2969 9.68164 30.5039 9.57617C30.7148 9.4707 30.8711 9.32617 30.9727 9.14258C31.0781 8.95508 31.1309 8.74023 31.1309 8.49805C31.1309 8.23242 31.084 8.00195 30.9902 7.80664C30.9004 7.61133 30.7559 7.46094 30.5566 7.35547C30.3613 7.25 30.1035 7.19727 29.7832 7.19727H28.1074L28.1191 6.06055H30.252L30.6211 6.5C31.1133 6.50391 31.5137 6.60156 31.8223 6.79297C32.1348 6.98438 32.3652 7.23047 32.5137 7.53125C32.6621 7.83203 32.7363 8.15625 32.7363 8.50391C32.7363 9.05078 32.6172 9.50977 32.3789 9.88086C32.1445 10.252 31.8008 10.5312 31.3477 10.7188C30.8984 10.9062 30.3535 11 29.7129 11Z" fill="#E73980"/>
</svg>
